<?xml version="1.0" encoding="utf-8"?><svg xmlns="http://www.w3.org/2000/svg" xmlns:xlink="http://www.w3.org/1999/xlink"><symbol viewBox="0 0 451.846 451.847" id="arrow-right" xmlns="http://www.w3.org/2000/svg"><path d="M345.441 248.292L151.154 442.573c-12.359 12.365-32.397 12.365-44.75 0-12.354-12.354-12.354-32.391 0-44.744L278.318 225.92 106.409 54.017c-12.354-12.359-12.354-32.394 0-44.748 12.354-12.359 32.391-12.359 44.75 0l194.287 194.284c6.177 6.18 9.262 14.271 9.262 22.366 0 8.099-3.091 16.196-9.267 22.373z"/></symbol><symbol viewBox="0 0 492 492" id="close" xmlns="http://www.w3.org/2000/svg"><path d="M300.188 246L484.14 62.04c5.06-5.064 7.852-11.82 7.86-19.024 0-7.208-2.792-13.972-7.86-19.028L468.02 7.872C462.952 2.796 456.196.016 448.984.016c-7.2 0-13.956 2.78-19.024 7.856L246.008 191.82 62.048 7.872C56.988 2.796 50.228.016 43.02.016c-7.2 0-13.96 2.78-19.02 7.856L7.872 23.988c-10.496 10.496-10.496 27.568 0 38.052L191.828 246 7.872 429.952C2.808 435.024.02 441.78.02 448.984c0 7.204 2.788 13.96 7.852 19.028l16.124 16.116c5.06 5.072 11.824 7.856 19.02 7.856 7.208 0 13.968-2.784 19.028-7.856l183.96-183.952 183.952 183.952c5.068 5.072 11.824 7.856 19.024 7.856h.008c7.204 0 13.96-2.784 19.028-7.856l16.12-16.116c5.06-5.064 7.852-11.824 7.852-19.028 0-7.204-2.792-13.96-7.852-19.028L300.188 246z"/></symbol><symbol viewBox="-68 0 512 512" id="point" xmlns="http://www.w3.org/2000/svg"><path d="M187.645 0C84.175 0 0 84.176 0 187.645c0 47.53 29.95 114.687 89.02 199.605 43.175 62.074 85.64 110.11 87.43 112.125L187.644 512l11.199-12.625c1.785-2.016 44.25-50.05 87.43-112.125 59.066-84.918 89.019-152.074 89.019-199.605C375.293 84.175 291.113 0 187.645 0zm74.218 369.914c-29.183 41.984-58.68 78.117-74.218 96.55-15.5-18.382-44.887-54.378-74.051-96.308-54.73-78.68-83.66-141.793-83.66-182.511 0-86.961 70.75-157.711 157.71-157.711 86.965 0 157.711 70.75 157.711 157.71 0 40.676-28.87 103.704-83.492 182.27zm0 0"/><path d="M187.645 69.352c-61.067 0-110.747 49.68-110.747 110.746s49.68 110.75 110.747 110.75c61.07 0 110.75-49.684 110.75-110.75s-49.68-110.746-110.75-110.746zm0 191.562c-44.56 0-80.813-36.254-80.813-80.816 0-44.559 36.254-80.813 80.813-80.813 44.562 0 80.816 36.254 80.816 80.813 0 44.562-36.254 80.816-80.816 80.816zm0 0"/></symbol><symbol viewBox="0 0 268.832 268.832" id="right" xmlns="http://www.w3.org/2000/svg"><path d="M265.171 125.577l-80-80c-4.881-4.881-12.797-4.881-17.678 0-4.882 4.882-4.882 12.796 0 17.678l58.661 58.661H12.5c-6.903 0-12.5 5.597-12.5 12.5 0 6.902 5.597 12.5 12.5 12.5h213.654l-58.659 58.661c-4.882 4.882-4.882 12.796 0 17.678 2.44 2.439 5.64 3.661 8.839 3.661s6.398-1.222 8.839-3.661l79.998-80c4.882-4.882 4.882-12.796 0-17.678z"/></symbol></svg>